<svg width="999" height="562" viewBox="0 0 999 562" fill="none" xmlns="http://www.w3.org/2000/svg">
<g clip-path="url(#clip0)">
<rect x="0.178467" y="-6.10352e-05" width="999.093" height="561.99" fill="#162B3E"/>
<path d="M86.1848 428.041C145.875 461.332 183.193 479.365 201.72 495.189C300.761 545.135 234.395 563 195 563L-1.00003 563C15.9025 503.734 -38.5 358.5 86.1848 428.041Z" fill="#007EF0" fill-opacity="0.31"/>
<path d="M299.126 247.041C169.244 248.602 78.1231 422.836 1.5 558C59 564.721 67.5 557 268.685 564.721C538.948 575.094 639.442 466.373 656.223 356.707C673.005 247.041 461.478 245.09 299.126 247.041Z" fill="#275075" fill-opacity="0.41"/>
<path d="M307.493 134.298C348.48 252.475 361.265 369.331 307.493 513.25C277.144 594.476 163.623 561.095 86.2196 545.825C53.9057 539.45 27.8867 536.231 16.8423 545.825C-11.6577 579.325 7.54963 475.933 4.84218 465.325C2.1347 454.716 4.84219 451.825 4.8422 340.825C4.8422 262.375 73.5423 243.6 117.538 116.842C161.534 -9.91654 266.505 16.1199 307.493 134.298Z" fill="#164571" fill-opacity="0.46"/>
<rect x="407.621" y="-6.10352e-05" width="591.65" height="561.99" fill="#0D142E" fill-opacity="0.72"/>
<path d="M407.621 -6.10352e-05V566.283" stroke="white"/>
</g>
<defs>
<clipPath id="clip0">
<rect width="999" height="562" fill="white"/>
</clipPath>
</defs>
</svg>
