<svg width="999" height="562" viewBox="0 0 999 562" fill="none" xmlns="http://www.w3.org/2000/svg">
<g clip-path="url(#clip0)">
<rect x="0.178467" y="-6.10352e-05" width="999.093" height="561.99" fill="#162B3E"/>
<path d="M86.1848 428.041C145.875 461.332 183.193 479.365 201.72 495.189C300.761 545.135 234.395 563 195 563L-1.00003 563C15.9025 503.734 -38.5 358.5 86.1848 428.041Z" fill="#007EF0" fill-opacity="0.31"/>
<path d="M299.126 247.041C169.244 248.602 78.1231 422.836 1.5 558C59 564.721 67.5 557 268.685 564.721C538.948 575.094 639.442 466.373 656.223 356.707C673.005 247.041 461.478 245.09 299.126 247.041Z" fill="#275075" fill-opacity="0.41"/>
<path d="M307.493 134.298C348.48 252.475 361.265 369.331 307.493 513.25C277.144 594.476 163.623 561.095 86.2196 545.825C53.9057 539.45 27.8867 536.231 16.8423 545.825C-11.6577 579.325 7.54963 475.933 4.84218 465.325C2.1347 454.716 4.84219 451.825 4.8422 340.825C4.8422 262.375 73.5423 243.6 117.538 116.842C161.534 -9.91654 266.505 16.1199 307.493 134.298Z" fill="#164571" fill-opacity="0.46"/>
<rect x="407.621" y="-6.10352e-05" width="591.65" height="561.99" fill="#0D142E" fill-opacity="0.72"/>
<path d="M407.621 -6.10352e-05V566.283" stroke="white"/>
<path d="M643.84 118L630.064 102.736V118H625.696V84.544H630.064V100.048L643.888 84.544H649.408L634.24 101.296L649.552 118H643.84ZM678.43 103.84C678.43 104.672 678.382 105.552 678.286 106.48H657.262C657.422 109.072 658.302 111.104 659.902 112.576C661.534 114.016 663.502 114.736 665.806 114.736C667.694 114.736 669.262 114.304 670.51 113.44C671.79 112.544 672.686 111.36 673.198 109.888H677.902C677.198 112.416 675.79 114.48 673.678 116.08C671.566 117.648 668.942 118.432 665.806 118.432C663.31 118.432 661.07 117.872 659.086 116.752C657.134 115.632 655.598 114.048 654.478 112C653.358 109.92 652.798 107.52 652.798 104.8C652.798 102.08 653.342 99.696 654.43 97.648C655.518 95.6 657.038 94.032 658.99 92.944C660.974 91.824 663.246 91.264 665.806 91.264C668.302 91.264 670.51 91.808 672.43 92.896C674.35 93.984 675.822 95.488 676.846 97.408C677.902 99.296 678.43 101.44 678.43 103.84ZM673.918 102.928C673.918 101.264 673.55 99.84 672.814 98.656C672.078 97.44 671.07 96.528 669.79 95.92C668.542 95.28 667.15 94.96 665.614 94.96C663.406 94.96 661.518 95.664 659.95 97.072C658.414 98.48 657.534 100.432 657.31 102.928H673.918ZM706.852 91.696L691.012 130.384H686.5L691.684 117.712L681.076 91.696H685.924L694.18 113.008L702.34 91.696H706.852ZM745.179 84.784V118H740.811V93.232L729.771 118H726.699L715.611 93.184V118H711.243V84.784H715.947L728.235 112.24L740.523 84.784H745.179ZM750.955 104.752C750.955 102.064 751.499 99.712 752.587 97.696C753.675 95.648 755.163 94.064 757.051 92.944C758.971 91.824 761.099 91.264 763.435 91.264C765.739 91.264 767.739 91.76 769.435 92.752C771.131 93.744 772.395 94.992 773.227 96.496V91.696H777.643V118H773.227V113.104C772.363 114.64 771.067 115.92 769.339 116.944C767.643 117.936 765.659 118.432 763.387 118.432C761.051 118.432 758.939 117.856 757.051 116.704C755.163 115.552 753.675 113.936 752.587 111.856C751.499 109.776 750.955 107.408 750.955 104.752ZM773.227 104.8C773.227 102.816 772.827 101.088 772.027 99.616C771.227 98.144 770.139 97.024 768.763 96.256C767.419 95.456 765.931 95.056 764.299 95.056C762.667 95.056 761.179 95.44 759.835 96.208C758.491 96.976 757.419 98.096 756.619 99.568C755.819 101.04 755.419 102.768 755.419 104.752C755.419 106.768 755.819 108.528 756.619 110.032C757.419 111.504 758.491 112.64 759.835 113.44C761.179 114.208 762.667 114.592 764.299 114.592C765.931 114.592 767.419 114.208 768.763 113.44C770.139 112.64 771.227 111.504 772.027 110.032C772.827 108.528 773.227 106.784 773.227 104.8ZM797.84 91.216C801.04 91.216 803.632 92.192 805.616 94.144C807.6 96.064 808.592 98.848 808.592 102.496V118H804.272V103.12C804.272 100.496 803.616 98.496 802.304 97.12C800.992 95.712 799.2 95.008 796.928 95.008C794.624 95.008 792.784 95.728 791.408 97.168C790.064 98.608 789.392 100.704 789.392 103.456V118H785.024V91.696H789.392V95.44C790.256 94.096 791.424 93.056 792.896 92.32C794.4 91.584 796.048 91.216 797.84 91.216ZM814.095 104.752C814.095 102.064 814.639 99.712 815.727 97.696C816.815 95.648 818.303 94.064 820.191 92.944C822.111 91.824 824.239 91.264 826.575 91.264C828.879 91.264 830.879 91.76 832.575 92.752C834.271 93.744 835.535 94.992 836.367 96.496V91.696H840.783V118H836.367V113.104C835.503 114.64 834.207 115.92 832.479 116.944C830.783 117.936 828.799 118.432 826.527 118.432C824.191 118.432 822.079 117.856 820.191 116.704C818.303 115.552 816.815 113.936 815.727 111.856C814.639 109.776 814.095 107.408 814.095 104.752ZM836.367 104.8C836.367 102.816 835.967 101.088 835.167 99.616C834.367 98.144 833.279 97.024 831.903 96.256C830.559 95.456 829.071 95.056 827.439 95.056C825.807 95.056 824.319 95.44 822.975 96.208C821.631 96.976 820.559 98.096 819.759 99.568C818.959 101.04 818.559 102.768 818.559 104.752C818.559 106.768 818.959 108.528 819.759 110.032C820.559 111.504 821.631 112.64 822.975 113.44C824.319 114.208 825.807 114.592 827.439 114.592C829.071 114.592 830.559 114.208 831.903 113.44C833.279 112.64 834.367 111.504 835.167 110.032C835.967 108.528 836.367 106.784 836.367 104.8ZM859.013 91.264C861.285 91.264 863.269 91.76 864.965 92.752C866.693 93.744 867.973 94.992 868.805 96.496V91.696H873.221V118.576C873.221 120.976 872.709 123.104 871.685 124.96C870.661 126.848 869.189 128.32 867.269 129.376C865.381 130.432 863.173 130.96 860.645 130.96C857.189 130.96 854.309 130.144 852.005 128.512C849.701 126.88 848.341 124.656 847.925 121.84H852.245C852.725 123.44 853.717 124.72 855.221 125.68C856.725 126.672 858.533 127.168 860.645 127.168C863.045 127.168 864.997 126.416 866.501 124.912C868.037 123.408 868.805 121.296 868.805 118.576V113.056C867.941 114.592 866.661 115.872 864.965 116.896C863.269 117.92 861.285 118.432 859.013 118.432C856.677 118.432 854.549 117.856 852.629 116.704C850.741 115.552 849.253 113.936 848.165 111.856C847.077 109.776 846.533 107.408 846.533 104.752C846.533 102.064 847.077 99.712 848.165 97.696C849.253 95.648 850.741 94.064 852.629 92.944C854.549 91.824 856.677 91.264 859.013 91.264ZM868.805 104.8C868.805 102.816 868.405 101.088 867.605 99.616C866.805 98.144 865.717 97.024 864.341 96.256C862.997 95.456 861.509 95.056 859.877 95.056C858.245 95.056 856.757 95.44 855.413 96.208C854.069 96.976 852.997 98.096 852.197 99.568C851.397 101.04 850.997 102.768 850.997 104.752C850.997 106.768 851.397 108.528 852.197 110.032C852.997 111.504 854.069 112.64 855.413 113.44C856.757 114.208 858.245 114.592 859.877 114.592C861.509 114.592 862.997 114.208 864.341 113.44C865.717 112.64 866.805 111.504 867.605 110.032C868.405 108.528 868.805 106.784 868.805 104.8ZM904.602 103.84C904.602 104.672 904.554 105.552 904.458 106.48H883.434C883.594 109.072 884.474 111.104 886.074 112.576C887.706 114.016 889.674 114.736 891.978 114.736C893.866 114.736 895.434 114.304 896.682 113.44C897.962 112.544 898.858 111.36 899.37 109.888H904.074C903.37 112.416 901.962 114.48 899.85 116.08C897.738 117.648 895.114 118.432 891.978 118.432C889.482 118.432 887.242 117.872 885.258 116.752C883.306 115.632 881.77 114.048 880.65 112C879.53 109.92 878.97 107.52 878.97 104.8C878.97 102.08 879.514 99.696 880.602 97.648C881.69 95.6 883.21 94.032 885.162 92.944C887.146 91.824 889.418 91.264 891.978 91.264C894.474 91.264 896.682 91.808 898.602 92.896C900.522 93.984 901.994 95.488 903.018 97.408C904.074 99.296 904.602 101.44 904.602 103.84ZM900.09 102.928C900.09 101.264 899.722 99.84 898.986 98.656C898.25 97.44 897.242 96.528 895.962 95.92C894.714 95.28 893.322 94.96 891.786 94.96C889.578 94.96 887.69 95.664 886.122 97.072C884.586 98.48 883.706 100.432 883.482 102.928H900.09ZM914.736 95.968C915.504 94.464 916.592 93.296 918 92.464C919.44 91.632 921.184 91.216 923.232 91.216V95.728H922.08C917.184 95.728 914.736 98.384 914.736 103.696V118H910.368V91.696H914.736V95.968Z" fill="white"/>
<path d="M863.032 173.224H868.888V175H860.848V158.272H863.032V173.224ZM876.943 175.216C875.711 175.216 874.591 174.936 873.583 174.376C872.591 173.816 871.807 173.024 871.231 172C870.671 170.96 870.391 169.76 870.391 168.4C870.391 167.056 870.679 165.872 871.255 164.848C871.847 163.808 872.647 163.016 873.655 162.472C874.663 161.912 875.791 161.632 877.039 161.632C878.287 161.632 879.415 161.912 880.423 162.472C881.431 163.016 882.223 163.8 882.799 164.824C883.391 165.848 883.687 167.04 883.687 168.4C883.687 169.76 883.383 170.96 882.775 172C882.183 173.024 881.375 173.816 880.351 174.376C879.327 174.936 878.191 175.216 876.943 175.216ZM876.943 173.296C877.727 173.296 878.463 173.112 879.151 172.744C879.839 172.376 880.391 171.824 880.807 171.088C881.239 170.352 881.455 169.456 881.455 168.4C881.455 167.344 881.247 166.448 880.831 165.712C880.415 164.976 879.871 164.432 879.199 164.08C878.527 163.712 877.799 163.528 877.015 163.528C876.215 163.528 875.479 163.712 874.807 164.08C874.151 164.432 873.623 164.976 873.223 165.712C872.823 166.448 872.623 167.344 872.623 168.4C872.623 169.472 872.815 170.376 873.199 171.112C873.599 171.848 874.127 172.4 874.783 172.768C875.439 173.12 876.159 173.296 876.943 173.296ZM891.983 161.632C893.119 161.632 894.111 161.88 894.959 162.376C895.823 162.872 896.463 163.496 896.879 164.248V161.848H899.087V175.288C899.087 176.488 898.831 177.552 898.319 178.48C897.807 179.424 897.071 180.16 896.111 180.688C895.167 181.216 894.063 181.48 892.799 181.48C891.071 181.48 889.631 181.072 888.479 180.256C887.327 179.44 886.647 178.328 886.439 176.92H888.599C888.839 177.72 889.335 178.36 890.087 178.84C890.839 179.336 891.743 179.584 892.799 179.584C893.999 179.584 894.975 179.208 895.727 178.456C896.495 177.704 896.879 176.648 896.879 175.288V172.528C896.447 173.296 895.807 173.936 894.959 174.448C894.111 174.96 893.119 175.216 891.983 175.216C890.815 175.216 889.751 174.928 888.791 174.352C887.847 173.776 887.103 172.968 886.559 171.928C886.015 170.888 885.743 169.704 885.743 168.376C885.743 167.032 886.015 165.856 886.559 164.848C887.103 163.824 887.847 163.032 888.791 162.472C889.751 161.912 890.815 161.632 891.983 161.632ZM896.879 168.4C896.879 167.408 896.679 166.544 896.279 165.808C895.879 165.072 895.335 164.512 894.647 164.128C893.975 163.728 893.231 163.528 892.415 163.528C891.599 163.528 890.855 163.72 890.183 164.104C889.511 164.488 888.975 165.048 888.575 165.784C888.175 166.52 887.975 167.384 887.975 168.376C887.975 169.384 888.175 170.264 888.575 171.016C888.975 171.752 889.511 172.32 890.183 172.72C890.855 173.104 891.599 173.296 892.415 173.296C893.231 173.296 893.975 173.104 894.647 172.72C895.335 172.32 895.879 171.752 896.279 171.016C896.679 170.264 896.879 169.392 896.879 168.4ZM903.906 159.712C903.49 159.712 903.138 159.568 902.85 159.28C902.562 158.992 902.418 158.64 902.418 158.224C902.418 157.808 902.562 157.456 902.85 157.168C903.138 156.88 903.49 156.736 903.906 156.736C904.306 156.736 904.642 156.88 904.914 157.168C905.202 157.456 905.346 157.808 905.346 158.224C905.346 158.64 905.202 158.992 904.914 159.28C904.642 159.568 904.306 159.712 903.906 159.712ZM904.962 161.848V175H902.778V161.848H904.962ZM915.092 161.608C916.692 161.608 917.988 162.096 918.98 163.072C919.972 164.032 920.468 165.424 920.468 167.248V175H918.308V167.56C918.308 166.248 917.98 165.248 917.324 164.56C916.668 163.856 915.772 163.504 914.636 163.504C913.484 163.504 912.564 163.864 911.876 164.584C911.204 165.304 910.868 166.352 910.868 167.728V175H908.684V161.848H910.868V163.72C911.3 163.048 911.884 162.528 912.62 162.16C913.372 161.792 914.196 161.608 915.092 161.608Z" fill="white"/>
</g>
<defs>
<clipPath id="clip0">
<rect width="999" height="562" fill="white"/>
</clipPath>
</defs>
</svg>
